<?xml version="1.0" encoding="UTF-8" standalone="no"?><!DOCTYPE svg PUBLIC "-//W3C//DTD SVG 1.1//EN" "http://www.w3.org/Graphics/SVG/1.1/DTD/svg11.dtd"><svg width="100%" height="100%" viewBox="0 0 800 801" version="1.1" xmlns="http://www.w3.org/2000/svg" xmlns:xlink="http://www.w3.org/1999/xlink" xml:space="preserve" xmlns:serif="http://www.serif.com/" style="fill-rule:evenodd;clip-rule:evenodd;stroke-linejoin:round;stroke-miterlimit:1.5;"><rect id="fahrtspiel" x="0" y="0.232" width="800" height="800" style="fill:none;"/><g><path d="M754.014,180.272l-384.849,-82.281l-114.929,537.549l384.848,82.282l114.93,-537.55Z" style="fill:#fff;stroke:#000;stroke-width:6.5px;"/><path d="M674.062,151.411l-390.31,-50.369l-70.354,545.177l390.31,50.369l70.354,-545.177Z" style="fill:#fff;stroke:#000;stroke-width:6.5px;"/><path d="M569.693,113.599l-393.537,2.868l4.005,549.684l393.536,-2.867l-4.004,-549.685Z" style="fill:#fff;stroke:#000;stroke-width:6.5px;"/><path d="M478.715,82.642l-388.705,61.543l85.962,542.936l388.705,-61.543l-85.962,-542.936Z" style="fill:#fff;stroke:#000;stroke-width:6.5px;"/></g><g id="Bike"><path d="M236.939,390.591c28.306,-4.56 54.989,14.72 59.548,43.026c4.559,28.306 -14.72,54.989 -43.027,59.548c-28.306,4.559 -54.988,-14.72 -59.547,-43.026c-4.56,-28.307 14.72,-54.989 43.026,-59.548Z" style="fill:none;stroke:#000;stroke-width:6.5px;"/><path d="M422.923,360.635c28.306,-4.559 54.988,14.72 59.548,43.026c4.559,28.306 -14.721,54.989 -43.027,59.548c-28.306,4.559 -54.988,-14.72 -59.548,-43.026c-4.559,-28.307 14.721,-54.989 43.027,-59.548Z" style="fill:none;stroke:#000;stroke-width:6.5px;"/><path d="M259.058,356.497c-3.961,20.801 -3.934,29.227 -14.578,85.497" style="fill:none;stroke:#000;stroke-width:6.5px;"/><path d="M259.058,356.497l107.784,-17.361l-13.683,85.353l-94.101,-67.992Z" style="fill:none;stroke:#000;stroke-width:6.5px;"/><path d="M366.842,339.136l64.342,72.786l-77.935,12.553" style="fill:none;stroke:#000;stroke-width:6.5px;"/><path d="M345.065,328.035l39.003,-6.055" style="fill:none;stroke:#000;stroke-width:6.5px;"/><path d="M248.126,367.925l-6.114,0.985c-6.596,1.063 -12.796,-3.321 -13.837,-9.783c-1.04,-6.462 3.47,-12.57 10.065,-13.633l21.446,-3.454" style="fill:none;stroke:#000;stroke-width:6.5px;"/></g><path d="M390.314,169.817l20.965,-50.413l19.685,19.117l6.959,-13.915l23.787,35.002" style="fill:none;stroke:#000;stroke-width:6.5px;"/><circle cx="526.274" cy="156.386" r="22.487" style="fill:none;stroke:#000;stroke-width:6.5px;"/><path d="M602.987,164.845c7.742,-0.258 14.237,5.817 14.496,13.559c0.258,7.742 -5.817,14.237 -13.559,14.495c-7.742,0.259 -14.237,-5.817 -14.496,-13.559c-0.258,-7.741 5.817,-14.237 13.559,-14.495Z" style="fill:none;stroke:#000;stroke-width:6.5px;"/><path d="M631.239,169.825c7.742,-0.259 14.237,5.817 14.496,13.559c0.258,7.742 -5.817,14.237 -13.559,14.495c-7.742,0.259 -14.237,-5.817 -14.496,-13.559c-0.258,-7.741 5.817,-14.237 13.559,-14.495Z" style="fill:none;stroke:#000;stroke-width:6.5px;"/><path d="M709.36,195.898l13.486,2.873l-2.873,13.486" style="fill:none;stroke:#000;stroke-width:6.5px;stroke-linejoin:miter;stroke-miterlimit:10;"/><path d="M693.193,218.009c0,-0 20.845,-13.524 29.653,-19.238" style="fill:none;stroke:#000;stroke-width:6.5px;stroke-linejoin:miter;"/></svg>
