<?xml version="1.0" encoding="UTF-8" standalone="no"?><!DOCTYPE svg PUBLIC "-//W3C//DTD SVG 1.1//EN" "http://www.w3.org/Graphics/SVG/1.1/DTD/svg11.dtd"><svg width="100%" height="100%" viewBox="0 0 801 800" version="1.1" xmlns="http://www.w3.org/2000/svg" xmlns:xlink="http://www.w3.org/1999/xlink" xml:space="preserve" xmlns:serif="http://www.serif.com/" style="fill-rule:evenodd;clip-rule:evenodd;stroke-linejoin:round;stroke-miterlimit:1.5;"><rect id="intervall" x="0.847" y="0" width="800" height="800" style="fill:none;"/><g id="Bike"><circle cx="247.775" cy="436.213" r="84.423" style="fill:none;stroke:#000;stroke-width:6.5px;"/><circle cx="553.919" cy="436.213" r="84.423" style="fill:none;stroke:#000;stroke-width:6.5px;"/><path d="M292.074,302.804c-11.73,32.351 -13.864,45.876 -45.485,133.409" style="fill:none;stroke:#000;stroke-width:6.5px;"/><path d="M292.074,302.804l177.422,-0l-44.012,133.409l-133.41,-133.409Z" style="fill:none;stroke:#000;stroke-width:6.5px;"/><path d="M469.496,302.804l84.423,133.409l-128.287,-0" style="fill:none;stroke:#000;stroke-width:6.5px;"/><path d="M437.425,279.364l64.143,0.365" style="fill:none;stroke:#000;stroke-width:6.5px;"/><path d="M271.582,318.315l-10.065,0c-10.858,0 -19.672,-8.635 -19.672,-19.272c-0,-10.637 8.814,-19.272 19.672,-19.272l35.301,-0" style="fill:none;stroke:#000;stroke-width:6.5px;"/></g><path d="M671.736,444.258l70.583,0" style="fill:none;stroke:#000;stroke-width:6.5px;"/><path d="M682.03,409.109l89.93,-0" style="fill:none;stroke:#000;stroke-width:6.5px;"/><path d="M620.518,338.81l109.801,0" style="fill:none;stroke:#000;stroke-width:6.5px;"/><path d="M654.247,373.959l65.295,0" style="fill:none;stroke:#000;stroke-width:6.5px;"/></svg>
